# xmcd CD database file
#
# Track frame offsets:
#	150
#	19987
#	35057
#	53205
#	71837
#	87545
#	105587
#	121775
#	137902
#	157492
#	162347
#
# Disc length: 2450 seconds
#
# Revision: 0
# Processed by: cddbd v1.4PL0 Copyright (c) Steve Scherf et al.
# Submitted via: CDex 1.40Beta9
#
DISCID=a209900b
DTITLE=Betsy - Rough Around the Edges
DYEAR=1994
DGENRE=Country
TTITLE0=All Over My Heart
TTITLE1=If I Don't Stay the Night
TTITLE2=Doesn't Take Much
TTITLE3=Love Me Like You Mean It
TTITLE4=Draggin' It Back
TTITLE5=Bits and Pieces
TTITLE6=Hard To Believe
TTITLE7=You Can Look
TTITLE8=(But You Can't Touch) Southern Wind
TTITLE9=Passage
TTITLE10=This House
EXTD=YEAR: 1994 ID3G: 2
EXTT0=
EXTT1=
EXTT2=
EXTT3=
EXTT4=
EXTT5=
EXTT6=
EXTT7=
EXTT8=
EXTT9=
EXTT10=
PLAYORDER=
